<?xml version="1.0" standalone="no"?>
<!DOCTYPE svg PUBLIC "-//W3C//DTD SVG 20010904//EN"
 "http://www.w3.org/TR/2001/REC-SVG-20010904/DTD/svg10.dtd">
<svg version="1.0" xmlns="http://www.w3.org/2000/svg"
 width="327.000000pt" height="327.000000pt" viewBox="0 0 327.000000 327.000000"
 preserveAspectRatio="xMidYMid meet">
<metadata>
Created by potrace 1.14, written by Peter Selinger 2001-2017
</metadata>
<g transform="translate(0.000000,327.000000) scale(0.100000,-0.100000)"
fill="#000000" stroke="none">
<path d="M860 2893 c-63 -8 -170 -38 -221 -62 -141 -69 -243 -169 -314 -308
-94 -186 -91 -449 9 -658 34 -72 122 -207 173 -266 149 -173 280 -304 532
-535 36 -33 72 -66 81 -74 8 -8 52 -46 95 -85 44 -38 82 -72 85 -75 36 -39
203 -181 209 -178 5 2 46 37 92 79 46 41 104 93 129 115 25 21 47 41 50 44 3
3 36 32 75 65 38 33 89 77 112 99 23 21 52 45 64 54 21 14 19 16 -67 103 -49
49 -91 89 -94 89 -3 0 -26 -19 -50 -43 -25 -23 -74 -67 -110 -97 -75 -64 -120
-102 -169 -146 l-35 -32 -70 62 c-397 347 -670 620 -790 790 -119 169 -160
313 -130 465 16 83 44 141 97 198 106 115 250 165 404 141 132 -21 281 -123
384 -264 l31 -41 71 0 72 0 40 50 c164 205 328 285 522 255 120 -18 241 -98
300 -197 l28 -46 132 0 131 -1 -23 63 c-43 113 -125 224 -225 304 -243 196
-656 172 -899 -52 -84 -78 -74 -76 -127 -24 -85 86 -213 156 -342 190 -59 15
-194 24 -252 18z"/>
<path d="M2384 2141 c-2 -2 -4 -63 -4 -135 0 -104 -4 -141 -19 -181 l-19 -50
-168 -5 -169 -5 0 -122 0 -123 156 0 156 0 0 -292 c0 -363 7 -422 57 -493 40
-58 59 -73 120 -101 55 -26 73 -29 178 -31 64 -1 132 2 150 7 18 5 44 11 58
14 40 7 80 25 81 36 5 39 3 204 -2 212 -4 6 -29 3 -66 -6 -101 -26 -191 -19
-229 18 -30 31 -34 72 -34 352 l0 284 188 0 188 0 -1 125 0 125 -187 0 -188 0
0 188 0 187 -121 0 c-66 0 -122 -1 -125 -4z"/>
</g>
</svg>
